<svg xmlns="http://www.w3.org/2000/svg" viewBox="0 0 48 48">
  <rect x="1.5" y="1.5" width="45" height="45" rx="13" fill="#d92d20"/>
  <path d="M33.8 30.7v2.6a2.3 2.3 0 0 1-2.5 2.3 23 23 0 0 1-10-3.6 22.7 22.7 0 0 1-7-7 23 23 0 0 1-3.5-10.1 2.3 2.3 0 0 1 2.3-2.5h2.6a2.3 2.3 0 0 1 2.3 2c.1 1 .4 2.1.7 3.1a2.3 2.3 0 0 1-.5 2.4l-1.1 1.1a18.4 18.4 0 0 0 6.7 6.7l1.1-1.1a2.3 2.3 0 0 1 2.4-.5c1 .3 2 .6 3.1.7a2.3 2.3 0 0 1 2 2.3z" fill="#ffffff"/>
  <path d="M30.5 13.6a8.6 8.6 0 0 1 5 5" stroke="#ffffff" stroke-width="2.6" stroke-linecap="round" fill="none"/>
  <path d="M32.8 8.4a14.3 14.3 0 0 1 8 8" stroke="#ffb4ad" stroke-width="2.6" stroke-linecap="round" fill="none"/>
</svg>
